<svg width="21" height="19" viewBox="0 0 512 512" xmlns="http://www.w3.org/2000/svg">
    <g id="https:_www.flaticon.com_free-icon_building_916771" data-name="https://www.flaticon.com/free-icon/building_916771" transform="translate(0)">
    <g id="Group_8" data-name="Group 8" transform="translate(0 0)">
    <path d="m264.535156 34.132812c-4.714844 0-8.535156 3.820313-8.535156 8.535157-.367188 11.636719 3.851562 22.957031 11.742188 31.519531 3.695312 4.515625 5.324218 6.699219 5.324218 11.144531 0 4.714844 3.820313 8.535157 8.535156 8.535157 4.710938 0 8.53125-3.820313 8.53125-8.535157-.15625-8.210937-3.433593-16.054687-9.164062-21.9375-5.394531-5.515625-8.257812-13.023437-7.902344-20.726562 0-2.265625-.898437-4.433594-2.5-6.035157-1.597656-1.601562-3.769531-2.5-6.03125-2.5zm0 0"/>
    <path d="m290.132812 51.199219c0 4.714843 3.820313 8.535156 8.535157 8.535156 4.710937 0 8.53125-3.820313 8.53125-8.535156-.15625-8.210938-3.433594-16.054688-9.164063-21.9375-5.394531-5.515625-8.257812-13.023438-7.902344-20.726563 0-4.714844-3.820312-8.535156-8.53125-8.535156-4.714843 0-8.535156 3.820312-8.535156 8.535156-.367187 11.636719 3.851563 22.957032 11.742188 31.519532 3.695312 4.515624 5.324218 6.699218 5.324218 11.144531zm0 0"/>
    <path d="m511.890625 324.984375c.015625-.285156.015625-.570313 0-.855469-.019531-.800781-.15625-1.59375-.402344-2.355468-.058593-.195313-.070312-.390626-.144531-.585938v-.15625c-.382812-.890625-.917969-1.707031-1.578125-2.414062-.050781-.058594-.070313-.136719-.121094-.195313l-162.132812-170.667969-.085938-.058594c-.574219-.527343-1.214843-.976562-1.902343-1.339843-.289063-.164063-.53125-.425781-.855469-.554688-.355469-.101562-.714844-.183593-1.082031-.238281-.6875-.257812-1.410157-.425781-2.140626-.496094h-17.179687v-17.066406c0-9.425781-7.640625-17.066406-17.066406-17.066406h-68.265625c-9.425782 0-17.066406 7.640625-17.066406 17.066406v17.066406h-51.199219c-2.296875-.007812-4.5.914063-6.101563 2.558594l-.085937.054688-162.132813 170.664062c-.328125.414062-.613281.855469-.855468 1.324219-.351563.453125-.65625.941406-.910157 1.457031-.152343.507812-.253906 1.027344-.308593 1.554688-.148438.554687-.2382818 1.125-.273438 1.699218.0507812.519532.148438 1.035156.296875 1.535156.0625.5625.1875 1.117188.367187 1.65625.257813.488282.566407.953126.914063 1.382813.238281.476563.523437.925781.855469 1.347656l25.597656 25.597657c1.617188 1.617187 3.816406 2.519531 6.101562 2.5v136.535156c0 9.425781 7.640626 17.066406 17.066407 17.066406h409.601562c9.425781 0 17.066407-7.640625 17.066407-17.066406v-136.535156c1.117187-.003907 2.226562-.226563 3.257812-.65625 1.042969-.425782 1.988281-1.054688 2.785156-1.851563l25.597656-25.597656c.683594-.703125 1.238282-1.515625 1.640626-2.40625.101562-.25.191406-.503907.269531-.761719.246093-.691406.40625-1.410156.472656-2.140625zm-174.21875-162.851563 145.921875 153.601563h-147.132812l-145.921876-153.601563h36.199219l29.867188 31.480469.085937.058594c1.59375 1.65625 3.800782 2.585937 6.101563 2.5625h52.941406c4.710937 0 8.53125-3.824219 8.53125-8.535156v-25.566407zm-9.871094 179.199219 8.53125-8.53125h146.535157l-8.535157 8.53125zm-20.601562-162.132812h-34.132813v-51.199219h34.132813zm-51.199219-51.199219v40.15625l-17.066406-17.96875v-22.1875zm-222.046875 209.613281-13.472656-13.5 150.1875-158.121093 150.183593 158.121093-13.507812 13.5-130.457031-138.667969c-3.441407-3.421874-9-3.421874-12.441407 0zm59.914063 157.320313v-85.332032h51.199218v85.332032zm128 0h-59.734376v-85.332032c0-9.425781-7.640624-17.066406-17.066406-17.066406h-51.199218c-9.425782 0-17.066407 7.640625-17.066407 17.066406v85.332032h-25.601562v-150.742188l119.46875-126.941406 119.464843 126.941406v150.742188zm238.933593 0h-153.601562v-136.535156h153.601562zm0 0"/>
    <path d="m332.800781 460.800781h34.132813c4.710937 0 8.53125-3.820312 8.53125-8.535156v-51.199219c0-4.710937-3.820313-8.53125-8.53125-8.53125h-34.132813c-4.714843 0-8.535156 3.820313-8.535156 8.53125v51.199219c0 4.714844 3.820313 8.535156 8.535156 8.535156zm8.53125-51.199219h17.066407v34.132813h-17.066407zm0 0"/>
    <path d="m401.066406 460.800781h34.132813c4.714843 0 8.535156-3.820312 8.535156-8.535156v-51.199219c0-4.710937-3.820313-8.53125-8.535156-8.53125h-34.132813c-4.710937 0-8.53125 3.820313-8.53125 8.53125v51.199219c0 4.714844 3.820313 8.535156 8.53125 8.535156zm8.535156-51.199219h17.066407v34.132813h-17.066407zm0 0"/>
    <path d="m238.933594 392.535156h-34.132813c-4.714843 0-8.535156 3.820313-8.535156 8.53125v51.199219c0 4.714844 3.820313 8.535156 8.535156 8.535156h34.132813c4.710937 0 8.53125-3.820312 8.53125-8.535156v-51.199219c0-4.710937-3.820313-8.53125-8.53125-8.53125zm-8.535156 51.199219h-17.066407v-34.132813h17.066407zm0 0"/>
    </g>
    </g>
</svg>